#!OML:ASF E:\emotionWalksFemale\Project 1\Capture day 1\Session 1\Female1.ASF
:FULLY-SPECIFIED
:DEGREES
1598
root 10.1877 15.0765 5.00077 -4.79392 0.664956 354.799
lowerback 4.70974 1.64176 -1.76057
upperback -5.99278 2.07352 0.290362
thorax -9.04353 1.1418 1.03399
lowerneck 1.13487 -7.45492 -8.5209
upperneck -9.90093 -9.30721 13.2532
head -2.02446 -4.79983 5.51593
rclavicle -2.34566e-014 1.11319e-014
rhumerus -45.9259 -19.0556 -54.2064
rradius 48.6966
rwrist 20.8391
rhand 177.187 -70.8397
rfingers 7.12502
rthumb -157.107 -42.1786
lclavicle -2.34566e-014 1.11319e-014
lhumerus -57.3915 12.6244 56.4613
lradius 26.0976
lwrist -40.0436
lhand 15.634 -25.741
lfingers 7.12502
lthumb 40.4481 -0.651664
rfemur -5.6417 6.79481 38.0238
rtibia 28.3282
rfoot -20.5866 -31.741
rtoes 26.599
lfemur -22.5965 -2.18705 -14.837
ltibia 78.6223
lfoot -14.0821 1.4713
ltoes -28.6118
1599
root 10.1919 15.0708 5.15549 -5.08435 0.100496 354.872
lowerback 4.66764 2.18879 -1.46277
upperback -5.87242 2.82079 0.0973174
thorax -8.88683 1.47782 0.573354
lowerneck 1.76782 -7.72549 -8.96819
upperneck -10.1079 -9.69977 13.5823
head -2.10404 -5.01243 5.71692
rclavicle 2.40529e-014 -6.36111e-015
rhumerus -44.4867 -18.3005 -55.9043
rradius 48.1364
rwrist 20.5172
rhand 176.793 -71.3877
rfingers 7.12502
rthumb -157.485 -42.6803
lclavicle 2.40529e-014 -6.36111e-015
lhumerus -57.459 12.5666 55.4855
lradius 25.9722
lwrist -40.4939
lhand 15.8642 -26.1148
lfingers 7.12502
lthumb 40.6645 -1.09274
rfemur -4.46651 6.82655 38.1096
rtibia 28.1761
rfoot -21.0344 -31.7429
rtoes 26.3484
lfemur -23.6041 -2.24945 -15.1028
ltibia 78.4412
lfoot -14.8375 2.70535
ltoes -25.6167
1600
root 10.1988 15.0777 5.34454 -5.51973 -0.387615 355.444
lowerback 4.18451 2.63399 -1.75849
upperback -5.5112 3.38075 -0.181432
thorax -8.22518 1.75747 0.409888
lowerneck 1.79412 -7.95969 -9.07196
upperneck -9.99699 -10.0257 13.7029
head -2.02599 -5.17469 5.7611
rclavicle -1.27222e-014 4.77083e-015
rhumerus -42.6037 -17.4875 -57.7893
rradius 47.3143
rwrist 20.0172
rhand 175.046 -71.8177
rfingers 7.12502
rthumb -159.162 -42.9167
lclavicle -1.27222e-014 4.77083e-015
lhumerus -57.2441 12.8667 54.4369
lradius 25.6657
lwrist -40.5944
lhand 16.6271 -25.9466
lfingers 7.12502
lthumb 41.381 -1.15253
rfemur -2.85119 6.7606 37.6261
rtibia 27.8423
rfoot -21.9671 -31.6039
rtoes 26.3576
lfemur -23.9582 -2.44052 -16.0606
ltibia 77.7094
lfoot -15.7242 3.97976
ltoes -21.8317
1601
root 10.2017 15.0653 5.47794 -5.55698 -0.694087 355.189
lowerback 4.36491 2.95585 -1.35259
upperback -5.44154 3.83768 -0.257023
thorax -8.23302 1.95323 0.0448683
lowerneck 1.73884 -8.14347 -9.0618
upperneck -9.8992 -10.2735 13.7858
head -1.95518 -5.2982 5.77314
rclavicle 3.26007e-014 1.27222e-014
rhumerus -40.3697 -16.5976 -59.9966
rradius 46.4556
rwrist 19.1563
rhand 171.751 -70.096
rfingers 7.12502
rthumb -162.331 -40.8788
lclavicle 3.26007e-014 1.27222e-014
lhumerus -57.0184 12.7673 53.8127
lradius 25.6706
lwrist -39.6738
lhand 17.3695 -25.5191
lfingers 7.12502
lthumb 42.0772 -0.954975
rfemur -1.98724 6.97023 38.0421
rtibia 27.3404
rfoot -22.3996 -31.7566
rtoes 26.3537
lfemur -25.5054 -2.6236 -15.8995
ltibia 77.015
lfoot -16.0845 4.92987
ltoes -20.1493
1602
root 10.2038 15.065 5.63448 -5.83221 -0.959868 355.098
lowerback 4.54182 3.29811 -0.943916
upperback -5.30897 4.31655 -0.424381
thorax -8.15575 2.15672 -0.418064
lowerneck 1.665 -8.35739 -9.06352
upperneck -9.66066 -10.5801 13.7611
head -1.83983 -5.44477 5.74657
rclavicle -4.37326e-014 -6.36111e-015
rhumerus -38.2172 -16.3526 -61.6519
rradius 45.2216
rwrist 20.0761
rhand 173.064 -70.2136
rfingers 7.12502
rthumb -161.068 -41.115
lclavicle -4.37326e-014 -6.36111e-015
lhumerus -56.9926 12.1975 53.4926
lradius 26.0302
lwrist -38.3673
lhand 17.6199 -25.3723
lfingers 7.12502
lthumb 42.3118 -0.887536
rfemur -0.633702 7.08624 38.3152
rtibia 26.6872
rfoot -22.0941 -32.0191
rtoes 24.85
lfemur -26.3474 -2.80244 -15.9938
ltibia 75.8663
lfoot -16.7169 5.91671
ltoes -21.3243
1603
root 10.2041 15.0704 5.79372 -6.01678 -1.29828 354.991
lowerback 4.6235 3.62202 -0.552915
upperback -5.26622 4.77705 -0.5097
thorax -8.11945 2.35616 -0.780373
lowerneck 1.63157 -8.54182 -9.18027
upperneck -9.32438 -10.8669 13.6648
head -1.70341 -5.57608 5.71459
rclavicle 3.53837e-014 3.18055e-015
rhumerus -36.204 -15.6374 -63.2627
rradius 43.9858
rwrist 20.2898
rhand 172.034 -69.914
rfingers 7.12502
rthumb -162.058 -40.7217
lclavicle 3.53837e-014 3.18055e-015
lhumerus -57.1799 11.9309 52.9995
lradius 26.3413
lwrist -37.3309
lhand 17.85 -25.0036
lfingers 7.12502
lthumb 42.5272 -0.592647
rfemur 0.718446 7.36441 38.6464
rtibia 25.9314
rfoot -21.5576 -32.3789
rtoes 23.0798
lfemur -27.1278 -2.80364 -16.0491
ltibia 74.4641
lfoot -17.5511 6.47848
ltoes -20.7854
1604
root 10.2035 15.0769 5.95389 -6.08366 -1.67282 354.942
lowerback 4.59714 3.9008 -0.298524
upperback -5.26317 5.1706 -0.536861
thorax -8.07425 2.53362 -0.991919
lowerneck 1.44334 -8.6736 -9.43562
upperneck -8.83796 -11.0851 13.6224
head -1.49391 -5.66541 5.70769
rclavicle 1.49089e-014 3.18055e-015
rhumerus -34.2961 -15.741 -64.1587
rradius 42.2052
rwrist 21.8389
rhand 170.222 -73.0965
rfingers 7.12502
rthumb -163.803 -43.7532
lclavicle 1.49089e-014 3.18055e-015
lhumerus -57.521 12.0591 52.2536
lradius 26.6212
lwrist -36.4397
lhand 18.3727 -24.6985
lfingers 7.12502
lthumb 43.0163 -0.458291
rfemur 2.03648 7.73098 38.9093
rtibia 25.0215
rfoot -21.8341 -32.6324
rtoes 23.2154
lfemur -27.8416 -2.76079 -16.1518
ltibia 72.6509
lfoot -18.0304 7.11561
ltoes -17.7763
1605
root 10.2029 15.0797 6.11815 -6.16456 -1.97741 354.967
lowerback 4.48691 4.16512 -0.0968623
upperback -5.23862 5.53397 -0.647046
thorax -7.95006 2.69813 -1.24803
lowerneck 1.45362 -8.74945 -9.73343
upperneck -8.54937 -11.2135 13.8582
head -1.36327 -5.72616 5.81036
rclavicle -2.38542e-014 4.77083e-015
rhumerus -32.5005 -17.2383 -64.3942
rradius 39.6609
rwrist 24.508
rhand 157.975 -88.5565
rfingers 7.12502
rthumb -175.615 -58.6219
lclavicle -2.38542e-014 4.77083e-015
lhumerus -57.8379 11.7451 51.7962
lradius 27.2062
lwrist -35.0892
lhand 19.1958 -24.3775
lfingers 7.12502
lthumb 43.7852 -0.414939
rfemur 3.46952 8.10671 39.1091
rtibia 23.9452
rfoot -22.4183 -32.7906
rtoes 24.5769
lfemur -28.3499 -2.7367 -16.3664
ltibia 70.527
lfoot -18.5756 7.80666
ltoes -17.1632
1606
root 10.2019 15.0878 6.28582 -6.18744 -2.20409 355.013
lowerback 4.28961 4.42295 0.151024
upperback -5.29214 5.88608 -0.844406
thorax -7.84164 2.85222 -1.61308
lowerneck 1.84292 -8.81798 -9.87666
upperneck -8.42137 -11.3462 14.0456
head -1.35324 -5.80601 5.90054
rclavicle 8.74653e-015 7.95139e-015
rhumerus -30.8187 -16.7246 -65.9747
rradius 38.6821
rwrist 25.0523
rhand 165.583 -252.817
rfingers 7.12502
rthumb -168.273 -77.5308
lclavicle 8.74653e-015 7.95139e-015
lhumerus -58.1798 10.8478 51.6682
lradius 28.0556
lwrist -33.3055
lhand 20.1478 -23.6875
lfingers 7.12502
lthumb 44.6728 -0.0602027
rfemur 4.94562 8.58493 39.3195
rtibia 22.6895
rfoot -22.5364 -33.0743
rtoes 25.4323
lfemur -28.795 -2.75243 -16.6278
ltibia 68.1623
lfoot -19.067 8.46749
ltoes -18.4811
1607
root 10.1964 15.0989 6.45259 -6.12597 -2.47012 354.895
lowerback 4.21377 4.69919 0.581587
upperback -5.44078 6.28207 -0.985748
thorax -7.88684 3.0163 -2.03868
lowerneck 2.06183 -8.96756 -9.99273
upperneck -8.06037 -11.6098 13.9086
head -1.25575 -5.93451 5.86758
rclavicle -1.39149e-014 7.95139e-015
rhumerus -29.2433 -16.2397 -67.4698
rradius 37.8354
rwrist 25.8447
rhand 166.019 -245.647
rfingers 7.12502
rthumb -167.852 -84.7254
lclavicle -1.39149e-014 7.95139e-015
lhumerus -58.4423 10.4465 50.9929
lradius 28.3767
lwrist -32.3979
lhand 20.6758 -23.4045
lfingers 7.12502
lthumb 45.1641 0.0300952
rfemur 6.41402 9.2262 39.751
rtibia 21.2021
rfoot -22.4251 -33.4681
rtoes 26.1555
lfemur -29.2837 -2.70369 -16.6473
ltibia 65.6224
lfoot -19.3677 8.9294
ltoes -19.6581
1608
root 10.189 15.1072 6.62409 -6.11963 -2.71796 354.792
lowerback 4.1058 5.01743 0.984244
upperback -5.61121 6.72612 -1.20785
thorax -7.92105 3.20251 -2.53412
lowerneck 2.57956 -9.11862 -9.91711
upperneck -7.83945 -11.8752 13.849
head -1.25412 -6.08265 5.85025
rclavicle -2.34566e-014 4.77083e-015
rhumerus -27.9467 -16.4759 -68.6934
rradius 36.9775
rwrist 27.3181
rhand 165.783 -243.674
rfingers 7.12502
rthumb -168.08 -86.6855
lclavicle -2.34566e-014 4.77083e-015
lhumerus -58.4206 10.4544 49.6257
lradius 28.1203
lwrist -32.2029
lhand 21.5427 -22.87
lfingers 7.12502
lthumb 45.9694 0.237316
rfemur 8.05865 9.73361 40.1437
rtibia 19.4219
rfoot -22.0516 -33.8167
rtoes 26.6839
lfemur -29.5965 -2.65435 -16.6698
ltibia 62.9164
lfoot -19.9522 8.76278
ltoes -20.3181
1609
root 10.1821 15.1157 6.80054 -6.10676 -2.81169 354.722
lowerback 3.83081 5.22415 1.3085
upperback -5.71555 7.01048 -1.43976
thorax -7.79371 3.31923 -2.95602
lowerneck 3.20444 -9.1762 -9.80779
upperneck -7.85542 -11.9896 14.0079
head -1.34364 -6.16867 5.91354
rclavicle -6.75868e-014 -1.59028e-015
rhumerus -26.6266 -16.9003 -69.8558
rradius 36.1337
rwrist 28.8301
rhand 166.606 -246.613
rfingers 7.12502
rthumb -167.287 -83.7939
lclavicle -6.75868e-014 -1.59028e-015
lhumerus -58.4652 10.2517 48.56
lradius 28.2573
lwrist -31.3293
lhand 22.8906 -21.6997
lfingers 7.12502
lthumb 47.2177 0.870007
rfemur 9.82226 10.0211 40.4592
rtibia 17.4081
rfoot -21.3422 -34.1063
rtoes 26.8078
lfemur -29.8361 -2.79523 -16.7523
ltibia 60.0638
lfoot -20.5347 8.52235
ltoes -21.3402
1610
root 10.1739 15.1229 6.97743 -6.02041 -2.83461 354.573
lowerback 3.5428 5.17345 1.54335
upperback -5.54513 6.96821 -1.23801
thorax -7.44216 3.30261 -2.82624
lowerneck 2.50317 -9.10955 -10.679
upperneck -7.46317 -11.9134 14.1909
head -1.05657 -6.08793 6.0493
rclavicle -4.81059e-014 1.11319e-014
rhumerus -24.25 -16.1831 -71.1068
rradius 35.2812
rwrist 29.7474
rhand 167.295 -243.614
rfingers 7.12502
rthumb -166.622 -86.8359
lclavicle -4.81059e-014 1.11319e-014
lhumerus -58.9626 11.1597 47.648
lradius 28.553
lwrist -31.0057
lhand 23.3062 -21.5419
lfingers 7.12502
lthumb 47.6017 0.854583
rfemur 11.5547 10.4128 40.912
rtibia 15.3046
rfoot -20.7334 -34.5072
rtoes 27.1226
lfemur -30.1137 -2.98291 -16.7334
ltibia 57.096
lfoot -20.7891 8.51858
ltoes -22.762
1611
root 10.1663 15.1285 7.15117 -5.84335 -2.87324 354.531
lowerback 3.39683 5.62335 2.0344
upperback -5.83688 7.57813 -1.69244
thorax -7.5165 3.55749 -3.61928
lowerneck 3.36908 -9.39333 -10.3307
upperneck -7.64211 -12.3373 14.2603
head -1.21563 -6.34015 6.05884
rclavicle -3.97569e-016 -2.38542e-014
rhumerus -23.5796 -16.73 -72.1199
rradius 34.9927
rwrist 30.1207
rhand 167.819 -242.297
rfingers 7.12502
rthumb -166.118 -88.1859
lclavicle -3.97569e-016 -2.38542e-014
lhumerus -58.5006 10.5222 46.4223
lradius 28.347
lwrist -31.4118
lhand 23.2628 -21.8861
lfingers 7.12502
lthumb 47.5616 0.52869
rfemur 13.2136 10.8858 41.2555
rtibia 13.1282
rfoot -19.9341 -34.9657
rtoes 27.4789
lfemur -30.4134 -3.17085 -16.8037
ltibia 54.0248
lfoot -20.8074 8.57094
ltoes -23.0591
